<svg preserveAspectRatio="none" width="100%" height="100%" overflow="visible" style="display: block;" viewBox="0 0 269.451 430.745" fill="none" xmlns="http://www.w3.org/2000/svg">
<g id="Group 1321316278">
<path id="Vector" d="M217.17 306.057C217.45 307.487 220.82 305.427 221.55 305.337C219.76 303.517 216.26 306.527 217.17 306.057Z" fill="var(--fill-0, #F9F2E8)"/>
<path id="Vector_2" d="M199.209 288.758L200.819 288.418C199.159 287.968 197.459 287.538 195.779 287.108C196.919 287.658 198.079 288.188 199.199 288.748L199.209 288.758Z" fill="var(--fill-0, #F9F2E8)"/>
<path id="Vector_3" d="M189.373 269.504C186.903 271.984 188.053 273.574 189.793 275.114C190.663 275.884 191.673 276.644 192.453 277.504C193.213 278.364 193.743 279.314 193.643 280.444L192.573 281.704L198.153 280.814C195.303 276.974 189.273 273.294 189.373 269.514V269.504Z" fill="var(--fill-0, #F9F2E8)"/>
<path id="Vector_4" d="M196.449 252.34C194.529 254.25 193.249 251.21 197.079 255.14C197.199 254.77 197.309 254.62 197.409 254.38C197.139 253.98 196.829 253.41 196.449 252.34Z" fill="var(--fill-0, #F9F2E8)"/>
<path id="Vector_5" d="M197.408 254.377C198.708 256.317 198.578 251.987 197.408 254.377Z" fill="var(--fill-0, #F9F2E8)"/>
<path id="Vector_6" d="M190.82 245.757L194.38 247.247C195.39 245.927 194.31 243.387 195.79 243.707C193.09 241.607 192.11 242.947 190.82 245.757Z" fill="var(--fill-0, #F9F2E8)"/>
<path id="Vector_7" d="M185.142 245.736L186.782 246.596C187.202 246.036 187.182 245.556 185.142 245.736Z" fill="var(--fill-0, #F9F2E8)"/>
<path id="Vector_8" d="M190.27 248.427L186.78 246.577C186.07 247.497 184.21 248.627 188.2 247.527C186.35 248.287 188.33 247.897 190.26 248.427H190.27Z" fill="var(--fill-0, #F9F2E8)"/>
<path id="Vector_9" d="M190.331 250.584C189.901 252.804 190.171 255.164 186.681 253.644C190.301 258.244 194.001 255.214 190.331 250.584Z" fill="var(--fill-0, #F9F2E8)"/>
<path id="Vector_10" d="M182.76 271.812L182.08 274.702L184.96 275.342C183.53 275.022 184.54 270.702 182.76 271.812Z" fill="var(--fill-0, #F9F2E8)"/>
<path id="Vector_11" d="M183.98 227.58C182.67 228.17 181.29 230.46 179.86 231.6L182.43 232.67C182.66 231.17 182.27 228.82 183.98 227.58Z" fill="var(--fill-0, #F9F2E8)"/>
<path id="Vector_12" d="M179.859 231.603L176.029 230.023C177.349 232.733 178.619 232.593 179.859 231.603Z" fill="var(--fill-0, #F9F2E8)"/>
<path id="Vector_13" d="M178.457 249.009L185.657 251.159L177.867 248.139L178.457 249.009Z" fill="var(--fill-0, #F9F2E8)"/>
<path id="Vector_14" d="M177.181 216.508L180.991 216.348L174.961 216.158L177.181 216.508Z" fill="var(--fill-0, #F9F2E8)"/>
<path id="Vector_15" d="M171.962 209.641C175.022 209.321 174.712 205.441 176.952 205.771C175.232 204.081 172.172 203.711 169.432 203.401C171.462 204.331 172.362 206.211 171.962 209.641Z" fill="var(--fill-0, #F9F2E8)"/>
<path id="Vector_16" d="M165.18 202.655C166.26 203.065 167.79 203.215 169.43 203.395C168.33 202.915 167.01 202.605 165.18 202.655Z" fill="var(--fill-0, #F9F2E8)"/>
<path id="Vector_17" d="M173.551 224.813C174.141 224.133 175.771 222.503 175.541 220.393L172.881 223.672C173.081 224.022 173.311 224.423 173.541 224.823L173.551 224.813Z" fill="var(--fill-0, #F9F2E8)"/>
<path id="Vector_18" d="M172.811 223.786L172.89 223.676C172.19 222.416 171.73 221.536 171.54 221.146C171.71 221.476 172.091 222.266 172.811 223.786Z" fill="var(--fill-0, #F9F2E8)"/>
<path id="Vector_19" d="M173.722 225.1C173.662 224.99 173.622 224.91 173.562 224.81C173.302 225.13 173.232 225.26 173.722 225.1Z" fill="var(--fill-0, #F9F2E8)"/>
<path id="Vector_20" d="M177.121 239.649C174.181 239.129 170.031 236.939 169.151 242.049C172.221 241.819 172.701 238.879 177.121 239.649Z" fill="var(--fill-0, #F9F2E8)"/>
<path id="Vector_21" d="M170.37 229.156L171.49 232.626C172.35 232.006 173.32 230.646 174.77 230.886C173.32 230.286 171.83 229.726 170.36 229.156H170.37Z" fill="var(--fill-0, #F9F2E8)"/>
<path id="Vector_22" d="M168.362 228.39L170.372 229.17L169.952 227.88L168.362 228.39Z" fill="var(--fill-0, #F9F2E8)"/>
<path id="Vector_23" d="M165.544 209.85C163.234 209.54 162.194 208.21 160.864 206.82C161.394 208.93 162.184 210.93 163.314 212.59C164.514 212.12 166.874 211.599 165.544 209.859V209.85Z" fill="var(--fill-0, #F9F2E8)"/>
<path id="Vector_24" d="M168.83 216.781C168.69 216.741 168.58 216.651 168.45 216.621C168.28 216.981 168.29 217.181 168.83 216.781Z" fill="var(--fill-0, #F9F2E8)"/>
</g>
</svg>
