<svg preserveAspectRatio="none" width="100%" height="100%" overflow="visible" style="display: block;" viewBox="0 0 1105.47 819.201" fill="none" xmlns="http://www.w3.org/2000/svg">
<g id="Group 1321316243">
<rect id="Rectangle 18855" x="375.475" y="645.201" width="730" height="174" fill="url(#paint0_linear_295_193)"/>
<rect id="Rectangle 18908" x="375.475" y="645.201" width="730" height="174" fill="url(#paint1_linear_295_193)"/>
<rect id="Rectangle 18909" x="938.975" y="774.2" width="673" height="166" transform="rotate(-90 938.975 774.2)" fill="url(#paint2_linear_295_193)"/>
<path id="Rectangle 18857" d="M203.475 281.182H504.975L515.475 228.682L900.475 221.682L933.475 47.1822H203.475V281.182Z" fill="var(--fill-0, white)"/>
<g id="Vector 244" filter="url(#filter0_f_295_193)">
<path d="M444.975 674.182L207.975 686.182V499.475L252.475 448.475L221.975 383.182V282.858L408.475 336.682L409.475 361.182L377.475 370.682L409.475 383.182L408.475 426.682L811.475 423.682V454.682H719.975L696.992 467.182C718.605 445.569 648.653 486.636 623.475 499.975L498.975 515.975L493.475 544.069L467.475 560.682V602.182H444.975V674.182Z" fill="var(--fill-0, white)"/>
</g>
<rect id="Rectangle 18859" width="215" height="326" transform="matrix(-4.37114e-08 1 1 4.37114e-08 136.475 66.1822)" fill="url(#paint3_linear_295_193)"/>
<rect id="Rectangle 18860" width="215" height="326" transform="matrix(-4.37114e-08 1 1 4.37114e-08 136.475 66.1822)" fill="url(#paint4_linear_295_193)"/>
<rect id="Rectangle 18861" width="215" height="326" transform="matrix(-4.37114e-08 1 1 4.37114e-08 136.475 66.1822)" fill="url(#paint5_linear_295_193)"/>
<rect id="Rectangle 18862" width="215" height="326" transform="matrix(-4.37114e-08 1 1 4.37114e-08 136.475 66.1822)" fill="url(#paint6_linear_295_193)"/>
<rect id="Rectangle 18863" width="215" height="326" transform="matrix(-4.37114e-08 1 1 4.37114e-08 136.475 66.1822)" fill="url(#paint7_linear_295_193)"/>
<rect id="Rectangle 18864" width="215" height="326" transform="matrix(-4.37114e-08 1 1 4.37114e-08 136.475 66.1822)" fill="url(#paint8_linear_295_193)"/>
<rect id="Rectangle 18865" width="215" height="326" transform="matrix(-4.37114e-08 1 1 4.37114e-08 136.475 66.1822)" fill="url(#paint9_linear_295_193)"/>
<rect id="Rectangle 18866" width="215" height="326" transform="matrix(-4.37114e-08 1 1 4.37114e-08 136.475 66.1822)" fill="url(#paint10_linear_295_193)"/>
<rect id="Rectangle 18867" width="215" height="326" transform="matrix(-4.37114e-08 1 1 4.37114e-08 136.475 66.1822)" fill="url(#paint11_linear_295_193)"/>
<rect id="Rectangle 18868" width="215" height="326" transform="matrix(-4.37114e-08 1 1 4.37114e-08 136.475 66.1822)" fill="url(#paint12_linear_295_193)"/>
<rect id="Rectangle 18869" width="215" height="326" transform="matrix(-4.37114e-08 1 1 4.37114e-08 136.475 66.1822)" fill="url(#paint13_linear_295_193)"/>
<rect id="Rectangle 18870" width="215" height="326" transform="matrix(-4.37114e-08 1 1 4.37114e-08 136.475 66.1822)" fill="url(#paint14_linear_295_193)"/>
<rect id="Rectangle 18871" width="274" height="228" transform="matrix(1 0 0 -1 141.475 312.182)" fill="url(#paint15_linear_295_193)"/>
<rect id="Rectangle 18872" width="274" height="228" transform="matrix(1 0 0 -1 141.475 312.182)" fill="url(#paint16_linear_295_193)"/>
<rect id="Rectangle 18873" width="274" height="228" transform="matrix(1 0 0 -1 141.475 312.182)" fill="url(#paint17_linear_295_193)"/>
<rect id="Rectangle 18874" width="274" height="228" transform="matrix(1 0 0 -1 141.475 312.182)" fill="url(#paint18_linear_295_193)"/>
<rect id="Rectangle 18875" width="274" height="228" transform="matrix(1 0 0 -1 141.475 312.182)" fill="url(#paint19_linear_295_193)"/>
<rect id="Rectangle 18876" width="274" height="228" transform="matrix(1 0 0 -1 141.475 312.182)" fill="url(#paint20_linear_295_193)"/>
<rect id="Rectangle 18877" width="274" height="228" transform="matrix(1 0 0 -1 141.475 312.182)" fill="url(#paint21_linear_295_193)"/>
<rect id="Rectangle 18878" width="274" height="228" transform="matrix(1 0 0 -1 141.475 312.182)" fill="url(#paint22_linear_295_193)"/>
<rect id="Rectangle 18879" width="274" height="228" transform="matrix(1 0 0 -1 141.475 312.182)" fill="url(#paint23_linear_295_193)"/>
<rect id="Rectangle 18880" width="274" height="228" transform="matrix(1 0 0 -1 141.475 312.182)" fill="url(#paint24_linear_295_193)"/>
<rect id="Rectangle 18881" width="274" height="228" transform="matrix(1 0 0 -1 141.475 312.182)" fill="url(#paint25_linear_295_193)"/>
<rect id="Rectangle 18882" width="274" height="228" transform="matrix(1 0 0 -1 141.475 312.182)" fill="url(#paint26_linear_295_193)"/>
<rect id="Rectangle 18883" width="274" height="228" transform="matrix(1 0 0 -1 141.475 312.182)" fill="url(#paint27_linear_295_193)"/>
<rect id="Rectangle 18884" width="274" height="228" transform="matrix(1 0 0 -1 141.475 312.182)" fill="url(#paint28_linear_295_193)"/>
<rect id="Rectangle 18885" width="274" height="228" transform="matrix(1 0 0 -1 141.475 312.182)" fill="url(#paint29_linear_295_193)"/>
<rect id="Rectangle 18886" width="274" height="228" transform="matrix(1 0 0 -1 141.475 312.182)" fill="url(#paint30_linear_295_193)"/>
<rect id="Rectangle 18887" width="274" height="228" transform="matrix(1 0 0 -1 141.475 312.182)" fill="url(#paint31_linear_295_193)"/>
<rect id="Rectangle 18888" width="274" height="228" transform="matrix(1 0 0 -1 141.475 312.182)" fill="url(#paint32_linear_295_193)"/>
<rect id="Rectangle 18889" width="274" height="228" transform="matrix(1 0 0 -1 141.475 312.182)" fill="url(#paint33_linear_295_193)"/>
<rect id="Rectangle 18890" width="274" height="228" transform="matrix(1 0 0 -1 141.475 312.182)" fill="url(#paint34_linear_295_193)"/>
<g id="Rectangle 18891" filter="url(#filter1_f_295_193)">
<path d="M132.975 277.358C132.975 286.747 140.586 294.358 149.975 294.358L401.975 294.358C411.364 294.358 418.975 286.747 418.975 277.358L418.975 83.358C418.975 73.9691 411.364 66.358 401.975 66.358L149.975 66.358C140.586 66.358 132.975 73.9691 132.975 83.358L132.975 277.358Z" fill="var(--fill-0, white)"/>
</g>
<g id="Rectangle 18910" filter="url(#filter2_f_295_193)">
<path d="M16.7375 77.8311C14.6595 82.9481 17.1231 88.7808 22.2401 90.8588L268.693 190.942C273.81 193.02 279.643 190.557 281.721 185.44L304.296 129.849C306.374 124.732 303.911 118.899 298.794 116.821L52.3405 16.7375C47.2235 14.6595 41.3907 17.1231 39.3127 22.2401L16.7375 77.8311Z" fill="var(--fill-0, white)"/>
</g>
<rect id="Rectangle 18892" width="216" height="591" transform="matrix(-4.37114e-08 -1 -1 4.37114e-08 842.475 463.182)" fill="url(#paint35_linear_295_193)"/>
<rect id="Rectangle 18893" width="216" height="591" transform="matrix(-4.37114e-08 -1 -1 4.37114e-08 842.475 463.182)" fill="url(#paint36_linear_295_193)"/>
<rect id="Rectangle 18894" width="216" height="591" transform="matrix(-4.37114e-08 -1 -1 4.37114e-08 842.475 463.182)" fill="url(#paint37_linear_295_193)"/>
<rect id="Rectangle 18895" width="216" height="591" transform="matrix(-4.37114e-08 -1 -1 4.37114e-08 842.475 463.182)" fill="url(#paint38_linear_295_193)"/>
<rect id="Rectangle 18896" width="216" height="591" transform="matrix(-4.37114e-08 -1 -1 4.37114e-08 842.475 463.182)" fill="url(#paint39_linear_295_193)"/>
<rect id="Rectangle 18897" width="216" height="591" transform="matrix(-4.37114e-08 -1 -1 4.37114e-08 842.475 463.182)" fill="url(#paint40_linear_295_193)"/>
<rect id="Rectangle 18898" width="216" height="591" transform="matrix(-4.37114e-08 -1 -1 4.37114e-08 842.475 463.182)" fill="url(#paint41_linear_295_193)"/>
<rect id="Rectangle 18899" width="216" height="591" transform="matrix(-4.37114e-08 -1 -1 4.37114e-08 842.475 463.182)" fill="url(#paint42_linear_295_193)"/>
<rect id="Rectangle 18900" width="216" height="591" transform="matrix(-4.37114e-08 -1 -1 4.37114e-08 842.475 463.182)" fill="url(#paint43_linear_295_193)"/>
<rect id="Rectangle 18901" width="216" height="591" transform="matrix(-4.37114e-08 -1 -1 4.37114e-08 842.475 463.182)" fill="url(#paint44_linear_295_193)"/>
<rect id="Rectangle 18902" width="216" height="591" transform="matrix(-4.37114e-08 -1 -1 4.37114e-08 842.475 463.182)" fill="url(#paint45_linear_295_193)"/>
<rect id="Rectangle 18903" width="216" height="591" transform="matrix(-4.37114e-08 -1 -1 4.37114e-08 842.475 463.182)" fill="url(#paint46_linear_295_193)"/>
<rect id="Rectangle 18904" width="216" height="591" transform="matrix(-4.37114e-08 -1 -1 4.37114e-08 842.475 463.182)" fill="url(#paint47_linear_295_193)"/>
<rect id="Rectangle 18905" width="216" height="591" transform="matrix(-4.37114e-08 -1 -1 4.37114e-08 842.475 463.182)" fill="url(#paint48_linear_295_193)"/>
<g id="Rectangle 18906" filter="url(#filter3_f_295_193)">
<rect width="216" height="247" transform="matrix(-4.37114e-08 -1 -1 4.37114e-08 885.975 479.975)" fill="url(#paint49_linear_295_193)"/>
</g>
<g id="Rectangle 18907" filter="url(#filter4_f_295_193)">
<path d="M900.559 264.182C910.561 264.182 920.29 260.913 928.263 254.873C966.822 225.662 946.163 164.182 897.789 164.182L583.975 164.182L583.975 264.182L900.559 264.182Z" fill="var(--fill-0, white)"/>
</g>
</g>
<defs>
<filter id="filter0_f_295_193" x="189.975" y="264.858" width="639.5" height="439.324" filterUnits="userSpaceOnUse" color-interpolation-filters="sRGB">
<feFlood flood-opacity="0" result="BackgroundImageFix"/>
<feBlend mode="normal" in="SourceGraphic" in2="BackgroundImageFix" result="shape"/>
<feGaussianBlur stdDeviation="9" result="effect1_foregroundBlur_295_193"/>
</filter>
<filter id="filter1_f_295_193" x="116.975" y="50.358" width="318" height="260" filterUnits="userSpaceOnUse" color-interpolation-filters="sRGB">
<feFlood flood-opacity="0" result="BackgroundImageFix"/>
<feBlend mode="normal" in="SourceGraphic" in2="BackgroundImageFix" result="shape"/>
<feGaussianBlur stdDeviation="8" result="effect1_foregroundBlur_295_193"/>
</filter>
<filter id="filter2_f_295_193" x="2.38419e-07" y="2.38419e-07" width="321.034" height="207.68" filterUnits="userSpaceOnUse" color-interpolation-filters="sRGB">
<feFlood flood-opacity="0" result="BackgroundImageFix"/>
<feBlend mode="normal" in="SourceGraphic" in2="BackgroundImageFix" result="shape"/>
<feGaussianBlur stdDeviation="8" result="effect1_foregroundBlur_295_193"/>
</filter>
<filter id="filter3_f_295_193" x="629.975" y="254.975" width="265" height="234" filterUnits="userSpaceOnUse" color-interpolation-filters="sRGB">
<feFlood flood-opacity="0" result="BackgroundImageFix"/>
<feBlend mode="normal" in="SourceGraphic" in2="BackgroundImageFix" result="shape"/>
<feGaussianBlur stdDeviation="4.5" result="effect1_foregroundBlur_295_193"/>
</filter>
<filter id="filter4_f_295_193" x="558.975" y="139.182" width="414.377" height="150" filterUnits="userSpaceOnUse" color-interpolation-filters="sRGB">
<feFlood flood-opacity="0" result="BackgroundImageFix"/>
<feBlend mode="normal" in="SourceGraphic" in2="BackgroundImageFix" result="shape"/>
<feGaussianBlur stdDeviation="12.5" result="effect1_foregroundBlur_295_193"/>
</filter>
<linearGradient id="paint0_linear_295_193" x1="740.475" y1="645.201" x2="740.475" y2="819.201" gradientUnits="userSpaceOnUse">
<stop stop-color="white" stop-opacity="0"/>
<stop offset="1" stop-color="white"/>
</linearGradient>
<linearGradient id="paint1_linear_295_193" x1="740.475" y1="645.201" x2="740.475" y2="819.201" gradientUnits="userSpaceOnUse">
<stop stop-color="white" stop-opacity="0"/>
<stop offset="1" stop-color="white"/>
</linearGradient>
<linearGradient id="paint2_linear_295_193" x1="1275.47" y1="774.2" x2="1275.47" y2="940.2" gradientUnits="userSpaceOnUse">
<stop stop-color="white" stop-opacity="0"/>
<stop offset="1" stop-color="white"/>
</linearGradient>
<linearGradient id="paint3_linear_295_193" x1="107.5" y1="0" x2="107.5" y2="326" gradientUnits="userSpaceOnUse">
<stop stop-color="white" stop-opacity="0"/>
<stop offset="1" stop-color="white"/>
</linearGradient>
<linearGradient id="paint4_linear_295_193" x1="107.5" y1="0" x2="107.5" y2="326" gradientUnits="userSpaceOnUse">
<stop stop-color="white" stop-opacity="0"/>
<stop offset="1" stop-color="white"/>
</linearGradient>
<linearGradient id="paint5_linear_295_193" x1="107.5" y1="0" x2="107.5" y2="326" gradientUnits="userSpaceOnUse">
<stop stop-color="white" stop-opacity="0"/>
<stop offset="1" stop-color="white"/>
</linearGradient>
<linearGradient id="paint6_linear_295_193" x1="107.5" y1="0" x2="107.5" y2="326" gradientUnits="userSpaceOnUse">
<stop stop-color="white" stop-opacity="0"/>
<stop offset="1" stop-color="white"/>
</linearGradient>
<linearGradient id="paint7_linear_295_193" x1="107.5" y1="0" x2="107.5" y2="326" gradientUnits="userSpaceOnUse">
<stop stop-color="white" stop-opacity="0"/>
<stop offset="1" stop-color="white"/>
</linearGradient>
<linearGradient id="paint8_linear_295_193" x1="107.5" y1="0" x2="107.5" y2="326" gradientUnits="userSpaceOnUse">
<stop stop-color="white" stop-opacity="0"/>
<stop offset="1" stop-color="white"/>
</linearGradient>
<linearGradient id="paint9_linear_295_193" x1="107.5" y1="0" x2="107.5" y2="326" gradientUnits="userSpaceOnUse">
<stop stop-color="white" stop-opacity="0"/>
<stop offset="1" stop-color="white"/>
</linearGradient>
<linearGradient id="paint10_linear_295_193" x1="107.5" y1="0" x2="107.5" y2="326" gradientUnits="userSpaceOnUse">
<stop stop-color="white" stop-opacity="0"/>
<stop offset="1" stop-color="white"/>
</linearGradient>
<linearGradient id="paint11_linear_295_193" x1="107.5" y1="0" x2="107.5" y2="326" gradientUnits="userSpaceOnUse">
<stop stop-color="white" stop-opacity="0"/>
<stop offset="1" stop-color="white"/>
</linearGradient>
<linearGradient id="paint12_linear_295_193" x1="107.5" y1="0" x2="107.5" y2="326" gradientUnits="userSpaceOnUse">
<stop stop-color="white" stop-opacity="0"/>
<stop offset="1" stop-color="white"/>
</linearGradient>
<linearGradient id="paint13_linear_295_193" x1="107.5" y1="0" x2="107.5" y2="326" gradientUnits="userSpaceOnUse">
<stop stop-color="white" stop-opacity="0"/>
<stop offset="1" stop-color="white"/>
</linearGradient>
<linearGradient id="paint14_linear_295_193" x1="107.5" y1="0" x2="107.5" y2="326" gradientUnits="userSpaceOnUse">
<stop stop-color="white" stop-opacity="0"/>
<stop offset="1" stop-color="white"/>
</linearGradient>
<linearGradient id="paint15_linear_295_193" x1="137" y1="0" x2="137" y2="228" gradientUnits="userSpaceOnUse">
<stop stop-color="white" stop-opacity="0"/>
<stop offset="1" stop-color="white"/>
</linearGradient>
<linearGradient id="paint16_linear_295_193" x1="137" y1="0" x2="137" y2="228" gradientUnits="userSpaceOnUse">
<stop stop-color="white" stop-opacity="0"/>
<stop offset="1" stop-color="white"/>
</linearGradient>
<linearGradient id="paint17_linear_295_193" x1="137" y1="0" x2="137" y2="228" gradientUnits="userSpaceOnUse">
<stop stop-color="white" stop-opacity="0"/>
<stop offset="1" stop-color="white"/>
</linearGradient>
<linearGradient id="paint18_linear_295_193" x1="137" y1="0" x2="137" y2="228" gradientUnits="userSpaceOnUse">
<stop stop-color="white" stop-opacity="0"/>
<stop offset="1" stop-color="white"/>
</linearGradient>
<linearGradient id="paint19_linear_295_193" x1="137" y1="0" x2="137" y2="228" gradientUnits="userSpaceOnUse">
<stop stop-color="white" stop-opacity="0"/>
<stop offset="1" stop-color="white"/>
</linearGradient>
<linearGradient id="paint20_linear_295_193" x1="137" y1="0" x2="137" y2="228" gradientUnits="userSpaceOnUse">
<stop stop-color="white" stop-opacity="0"/>
<stop offset="1" stop-color="white"/>
</linearGradient>
<linearGradient id="paint21_linear_295_193" x1="137" y1="0" x2="137" y2="228" gradientUnits="userSpaceOnUse">
<stop stop-color="white" stop-opacity="0"/>
<stop offset="1" stop-color="white"/>
</linearGradient>
<linearGradient id="paint22_linear_295_193" x1="137" y1="0" x2="137" y2="228" gradientUnits="userSpaceOnUse">
<stop stop-color="white" stop-opacity="0"/>
<stop offset="1" stop-color="white"/>
</linearGradient>
<linearGradient id="paint23_linear_295_193" x1="137" y1="0" x2="137" y2="228" gradientUnits="userSpaceOnUse">
<stop stop-color="white" stop-opacity="0"/>
<stop offset="1" stop-color="white"/>
</linearGradient>
<linearGradient id="paint24_linear_295_193" x1="137" y1="0" x2="137" y2="228" gradientUnits="userSpaceOnUse">
<stop stop-color="white" stop-opacity="0"/>
<stop offset="1" stop-color="white"/>
</linearGradient>
<linearGradient id="paint25_linear_295_193" x1="137" y1="0" x2="137" y2="228" gradientUnits="userSpaceOnUse">
<stop stop-color="white" stop-opacity="0"/>
<stop offset="1" stop-color="white"/>
</linearGradient>
<linearGradient id="paint26_linear_295_193" x1="137" y1="0" x2="137" y2="228" gradientUnits="userSpaceOnUse">
<stop stop-color="white" stop-opacity="0"/>
<stop offset="1" stop-color="white"/>
</linearGradient>
<linearGradient id="paint27_linear_295_193" x1="137" y1="0" x2="137" y2="228" gradientUnits="userSpaceOnUse">
<stop stop-color="white" stop-opacity="0"/>
<stop offset="1" stop-color="white"/>
</linearGradient>
<linearGradient id="paint28_linear_295_193" x1="137" y1="0" x2="137" y2="228" gradientUnits="userSpaceOnUse">
<stop stop-color="white" stop-opacity="0"/>
<stop offset="1" stop-color="white"/>
</linearGradient>
<linearGradient id="paint29_linear_295_193" x1="137" y1="0" x2="137" y2="228" gradientUnits="userSpaceOnUse">
<stop stop-color="white" stop-opacity="0"/>
<stop offset="1" stop-color="white"/>
</linearGradient>
<linearGradient id="paint30_linear_295_193" x1="137" y1="0" x2="137" y2="228" gradientUnits="userSpaceOnUse">
<stop stop-color="white" stop-opacity="0"/>
<stop offset="1" stop-color="white"/>
</linearGradient>
<linearGradient id="paint31_linear_295_193" x1="137" y1="0" x2="137" y2="228" gradientUnits="userSpaceOnUse">
<stop stop-color="white" stop-opacity="0"/>
<stop offset="1" stop-color="white"/>
</linearGradient>
<linearGradient id="paint32_linear_295_193" x1="137" y1="0" x2="137" y2="228" gradientUnits="userSpaceOnUse">
<stop stop-color="white" stop-opacity="0"/>
<stop offset="1" stop-color="white"/>
</linearGradient>
<linearGradient id="paint33_linear_295_193" x1="137" y1="0" x2="137" y2="228" gradientUnits="userSpaceOnUse">
<stop stop-color="white" stop-opacity="0"/>
<stop offset="1" stop-color="white"/>
</linearGradient>
<linearGradient id="paint34_linear_295_193" x1="137" y1="0" x2="137" y2="228" gradientUnits="userSpaceOnUse">
<stop stop-color="white" stop-opacity="0"/>
<stop offset="1" stop-color="white"/>
</linearGradient>
<linearGradient id="paint35_linear_295_193" x1="108" y1="0" x2="107.999" y2="591" gradientUnits="userSpaceOnUse">
<stop stop-color="white" stop-opacity="0"/>
<stop offset="1" stop-color="white"/>
</linearGradient>
<linearGradient id="paint36_linear_295_193" x1="108" y1="0" x2="107.999" y2="591" gradientUnits="userSpaceOnUse">
<stop stop-color="white" stop-opacity="0"/>
<stop offset="1" stop-color="white"/>
</linearGradient>
<linearGradient id="paint37_linear_295_193" x1="108" y1="0" x2="107.999" y2="591" gradientUnits="userSpaceOnUse">
<stop stop-color="white" stop-opacity="0"/>
<stop offset="1" stop-color="white"/>
</linearGradient>
<linearGradient id="paint38_linear_295_193" x1="108" y1="0" x2="107.999" y2="591" gradientUnits="userSpaceOnUse">
<stop stop-color="white" stop-opacity="0"/>
<stop offset="1" stop-color="white"/>
</linearGradient>
<linearGradient id="paint39_linear_295_193" x1="108" y1="0" x2="107.999" y2="591" gradientUnits="userSpaceOnUse">
<stop stop-color="white" stop-opacity="0"/>
<stop offset="1" stop-color="white"/>
</linearGradient>
<linearGradient id="paint40_linear_295_193" x1="108" y1="0" x2="107.999" y2="591" gradientUnits="userSpaceOnUse">
<stop stop-color="white" stop-opacity="0"/>
<stop offset="1" stop-color="white"/>
</linearGradient>
<linearGradient id="paint41_linear_295_193" x1="108" y1="0" x2="107.999" y2="591" gradientUnits="userSpaceOnUse">
<stop stop-color="white" stop-opacity="0"/>
<stop offset="1" stop-color="white"/>
</linearGradient>
<linearGradient id="paint42_linear_295_193" x1="108" y1="0" x2="107.999" y2="591" gradientUnits="userSpaceOnUse">
<stop stop-color="white" stop-opacity="0"/>
<stop offset="1" stop-color="white"/>
</linearGradient>
<linearGradient id="paint43_linear_295_193" x1="108" y1="0" x2="107.999" y2="591" gradientUnits="userSpaceOnUse">
<stop stop-color="white" stop-opacity="0"/>
<stop offset="1" stop-color="white"/>
</linearGradient>
<linearGradient id="paint44_linear_295_193" x1="108" y1="0" x2="107.999" y2="591" gradientUnits="userSpaceOnUse">
<stop stop-color="white" stop-opacity="0"/>
<stop offset="1" stop-color="white"/>
</linearGradient>
<linearGradient id="paint45_linear_295_193" x1="108" y1="0" x2="107.999" y2="591" gradientUnits="userSpaceOnUse">
<stop stop-color="white" stop-opacity="0"/>
<stop offset="1" stop-color="white"/>
</linearGradient>
<linearGradient id="paint46_linear_295_193" x1="108" y1="0" x2="107.999" y2="591" gradientUnits="userSpaceOnUse">
<stop stop-color="white" stop-opacity="0"/>
<stop offset="1" stop-color="white"/>
</linearGradient>
<linearGradient id="paint47_linear_295_193" x1="108" y1="0" x2="107.999" y2="591" gradientUnits="userSpaceOnUse">
<stop stop-color="white" stop-opacity="0"/>
<stop offset="1" stop-color="white"/>
</linearGradient>
<linearGradient id="paint48_linear_295_193" x1="108" y1="0" x2="107.999" y2="591" gradientUnits="userSpaceOnUse">
<stop stop-color="white" stop-opacity="0"/>
<stop offset="1" stop-color="white"/>
</linearGradient>
<linearGradient id="paint49_linear_295_193" x1="108" y1="0" x2="108" y2="247" gradientUnits="userSpaceOnUse">
<stop stop-color="white" stop-opacity="0"/>
<stop offset="1" stop-color="white"/>
</linearGradient>
</defs>
</svg>
