<svg preserveAspectRatio="none" width="100%" height="100%" overflow="visible" style="display: block;" viewBox="0 0 1008 477" fill="none" xmlns="http://www.w3.org/2000/svg">
<g id="Subtract">
<mask id="path-1-inside-1_0_8" fill="white">
<path d="M244 26C244 42.5685 257.431 56 274 56H967C989.644 56 1008 74.3563 1008 97V457C1008 468.046 999.046 477 988 477H20C8.95431 477 5.87922e-07 468.046 0 457V20C0 8.95431 8.95431 3.70448e-07 20 0H218C232.359 0 244 11.6406 244 26Z"/>
</mask>
<path d="M244 26C244 42.5685 257.431 56 274 56H967C989.644 56 1008 74.3563 1008 97V457C1008 468.046 999.046 477 988 477H20C8.95431 477 5.87922e-07 468.046 0 457V20C0 8.95431 8.95431 3.70448e-07 20 0H218C232.359 0 244 11.6406 244 26Z" fill="var(--fill-0, #F8F5EF)"/>
<path d="M988 477V478V478V477ZM0 457H-1V457H0ZM20 0V-1V-1V0ZM244 26H243C243 43.1208 256.879 57 274 57V56V55C257.984 55 245 42.0163 245 26H244ZM274 56V57H967V56V55H274V56ZM1008 97H1007V457H1008H1009V97H1008ZM1008 457H1007C1007 467.493 998.493 476 988 476V477V478C999.598 478 1009 468.598 1009 457H1008ZM988 477V476H20V477V478H988V477ZM20 477V476C9.50659 476 1 467.493 1 457H0H-1C-0.999999 468.598 8.40202 478 20 478V477ZM0 457H1V20H0H-1V457H0ZM0 20H1C1 9.50659 9.50659 1 20 1V0V-1C8.40202 -1 -1 8.40202 -1 20H0ZM20 0V1H218V0V-1H20V0ZM218 0V1C231.807 1 243 12.1929 243 26H244H245C245 11.0883 232.912 -1 218 -1V0ZM967 56V57C989.091 57 1007 74.9086 1007 97H1008H1009C1009 73.804 990.196 55 967 55V56Z" fill="url(#paint0_linear_0_8)" mask="url(#path-1-inside-1_0_8)"/>
</g>
<defs>
<linearGradient id="paint0_linear_0_8" x1="160.5" y1="9.65625" x2="252" y2="299.156" gradientUnits="userSpaceOnUse">
<stop stop-color="#174067"/>
<stop offset="1" stop-color="#F8F5EF"/>
</linearGradient>
</defs>
</svg>
